<svg id="jlaLogo" viewBox="0 0 150.91 152.25" style="color: rgb(255, 255, 255); fill: rgb(255, 255, 255);">
                    <title>JLA Logo</title>
                    <path id="theL" d="M5.83,130.13v17.51H17.07v4.61H0.48V130.13H5.83Z" transform="translate(0 0)"></path>
                    <path id="theA" d="M138.88,139.5l3.15,6.38h-6.42Zm-12,12.75h6l1.18-2.62h9.62l1.22,2.62h6l-12-22.11Z" transform="translate(0 0)"></path>
                    <path id="theJ" d="M17.56,14c0,4.9-3.52,8.35-8.81,8.35-5,0-8.09-3-8.74-7.34l5.22-1c0.23,2.22,1.44,3.59,3.52,3.59A3.32,3.32,0,0,0,12.17,14V0h5.38V14Z" transform="translate(0 0)"></path>
                  </svg>